<svg height="24" viewBox="0 0 175 24" width="175" xmlns="http://www.w3.org/2000/svg"><g fill="#fff" fill-rule="nonzero"><g><path d="m18.2753165 7.12615385c0-4.35692308-3.285865-6.94153846-8.75000004-6.94153846-5.72257384 0-8.82383967 3.10153846-8.82383967 8.82461538v.36923077c0 .07384615.07383967.11076923.1107595.11076923h4.91033755c-.25843882-.70153846-.29535865-1.44-.18459916-2.32615385.33227848-1.73538461 1.25527427-2.21538461 3.064346-2.21538461 1.43987342.07384615 2.25210972 1.07076923 2.32594932 1.14461538.4799578.55384616.7753165 1.66153846.664557 1.92-.1107595.22153846-.1845992.33230769.0369198.66461539.1476794.18461538.5537975.81230769.6276372.96.1107595.22153846-.5907173.22153846-.5537975.40615382.0369198.0738462.1107595.2953846.1476793.3692308.0369199.1107692-.1845991.1476923-.1845991.2215385 0 .036923.1476793.036923.1107595.1846153 0 .1107693-.221519.0369231-.221519.4061539 0 .2215384.2584388.5169231-.1845992.7753846-.443038.2953846-1.99367087-.5538462-2.14135019 1.0338462v.5538461c.07383966.8492308 1.51371309 1.8092308 1.66139239 2.9907692.0369198.2953847.0738397 1.1076923.0738397 1.2553847h-6.350211l-4.57805907 5.5015384c-.03691983.0369231-.03691983.1107692-.03691983.1476923.03691983.0369231.07383966.0738462.11075949.0738462h17.02004221c.0738397 0 .1845991-.0738462.1845991-.1476923v-5.4276923c0-.0738462-.0738396-.1107693-.1107594-.1107693h-5.0210971l3.1012658-3.9138461c2.1044304-2.3630769 2.9905064-4.39384618 2.9905064-6.83076925z"/><path d="m39.3196203 13.5876923c0-.0738461-.0738397-.1476923-.1476794-.1476923h-2.0675105v-12.55384615c0-.07384616-.0738397-.14769231-.1107595-.14769231h-7.3470464c-.0369199 0 0 .03692308-.0369199.03692308l-10.0052742 13.62461538c0 .0369231-.0369199.0369231-.0369199.0738462v4.1353846c0 .0738461.0738397.2215384.1476794.2215384h10.4113924v4.6153846c0 .0738462.0738396.1476924.1476793.1476924h6.7563291c.0738397 0 .1107595-.0738462.1107595-.1476924v-4.6523076h2.0305907c.1845992 0 .1845992-.1476924.1845992-.1846154v-5.0215385zm-4.39346-1.8830769-7.7162447 3.8769231c-.0369198.036923-.1107595.036923-.1107595 0-.0369198-.0369231-.0738396-.0738462-.0738396-.1107693v-7.75384612c0-.03692308.0369198-.07384616.0738396-.11076923h.0738397.0738396l7.7162448 3.83999995c.0369198.0369231.0738396.0738462.0738396.1107693-.0738396.0738461-.0738396.1107692-.1107595.1476923z"/></g><g transform="translate(42.457806)"><path d="m6.86708861 23.6676923c-2.32594937 0-4.61497891-.5907692-6.71940928-2.3261538l1.77215189-2.4c1.21835443 1.1076923 3.21202532 1.6984615 4.76265823 1.6984615 2.32594937 0 3.91350215-1.0338462 3.91350215-3.2123077 0-1.9569231-1.77215194-3.0276923-3.83966249-4.0615385-3.24894514-1.6615384-6.60864978-3.1015384-6.60864978-7.45846149 0-3.39692308 2.51054852-5.90769231 6.60864978-5.90769231 2.28902954 0 4.39345989.70153846 6.20253169 1.95692308l-1.6983123 2.58461538c-1.40295356-1.03384615-2.62130799-1.44-4.50421939-1.44-1.77215189 0-3.28586497.92307692-3.28586497 2.62153846 0 2.47384616 2.21518987 3.32307693 5.02109704 4.72615388 2.62130802 1.2923077 5.35337552 2.9538461 5.35337552 6.7938461.0369198 4.0984616-3.1751055 6.4246154-6.97784809 6.4246154z"/><path d="m16.7616034 23.2984615v-22.92923073h12.8111814v2.95384615h-9.6729958v7.31076928h9.4514768v2.9538461h-9.4514768v6.7569231h10.2637131v2.9538461z"/><path d="m39.2827004 23.6676923c-2.3259493 0-4.6149789-.5907692-6.7194093-2.3261538l1.7721519-2.4c1.2183545 1.1076923 3.2120254 1.6984615 4.7626583 1.6984615 2.3259493 0 3.9135021-1.0338462 3.9135021-3.2123077 0-1.9569231-1.7721519-3.0276923-3.8396625-4.0615385-3.2489451-1.6615384-6.6086498-3.1015384-6.6086498-7.45846149 0-3.39692308 2.5105486-5.90769231 6.6086498-5.90769231 2.2890296 0 4.3934599.70153846 6.2025317 1.95692308l-1.6983123 2.58461538c-1.4029535-1.03384615-2.621308-1.44-4.5042194-1.44-1.7721519 0-3.285865.92307692-3.285865 2.62153846 0 2.47384616 2.2151899 3.32307693 5.0210971 4.72615388 2.621308 1.2923077 5.3533755 2.9538461 5.3533755 6.7938461.0738397 4.0984616-3.1381856 6.4246154-6.9778481 6.4246154z"/><path d="m54.5305907 23.6676923c-2.3259493 0-4.6149789-.5907692-6.7194093-2.3261538l1.7721519-2.4c1.2183545 1.1076923 3.2120253 1.6984615 4.7626583 1.6984615 2.3259493 0 3.9135021-1.0338462 3.9135021-3.2123077 0-1.9569231-1.7721519-3.0276923-3.8396625-4.0615385-3.2489451-1.6615384-6.6086498-3.1015384-6.6086498-7.45846149 0-3.39692308 2.5105486-5.90769231 6.6086498-5.90769231 2.2890296 0 4.3934599.70153846 6.2025317 1.95692308l-1.6983123 2.58461538c-1.4029536-1.03384615-2.621308-1.44-4.5042194-1.44-1.7721519 0-3.285865.92307692-3.285865 2.62153846 0 2.47384616 2.2151899 3.32307693 5.0210971 4.72615388 2.621308 1.2923077 5.3533755 2.9538461 5.3533755 6.7938461.0369198 4.0984616-3.1751055 6.4246154-6.9778481 6.4246154z"/><path d="m64.4251055 23.2984615v-22.92923073h3.1381856v22.92923073z"/><path d="m82.478903 23.6676923c-6.57173 0-11.7774262-4.9846154-11.7774262-11.8892308.0369198-6.68307688 5.021097-11.7784615 11.6297468-11.7784615 7.0886076 0 11.8512659 5.16923077 11.8512659 11.8523077.0369198 6.6461538-5.2056963 11.8153846-11.7035865 11.8153846zm-.1107595-20.60307692c-4.9472574 0-8.3808017 3.6923077-8.3808017 8.71384612 0 5.0953847 3.9873417 8.8246154 8.4915612 8.8246154 4.5042194 0 8.4546413-3.3969231 8.4546413-8.8984615 0-4.94769232-3.507384-8.64000002-8.5654008-8.64000002z"/><path d="m112.863924 23.2984615-12.035865-16.61538458c-.110759-.18461538-.406118-.6276923-.406118-.6276923s.07384.51692307.07384.73846153v16.50461535h-3.1381861v-22.92923073h2.6582281l11.851266 16.28307693c.184599.2584615.406118.6646154.406118.6646154s-.07384-.48-.07384-.7384616v-16.20923073h3.138186v22.92923073z"/><path d="m125.232068 23.6676923c-2.32595 0-4.614979-.5907692-6.71941-2.3261538l1.772152-2.4c1.218355 1.1076923 3.212025 1.6984615 4.762658 1.6984615 2.32595 0 3.913502-1.0338462 3.913502-3.2123077 0-1.9569231-1.772151-3.0276923-3.839662-4.0615385-3.248945-1.6615384-6.60865-3.1015384-6.60865-7.45846149 0-3.39692308 2.510549-5.90769231 6.60865-5.90769231 2.28903 0 4.39346.70153846 6.202532 1.95692308l-1.698313 2.58461538c-1.402953-1.03384615-2.621308-1.44-4.504219-1.44-1.772152 0-3.285865.92307692-3.285865 2.62153846 0 2.47384616 2.21519 3.32307693 5.021097 4.72615388 2.621308 1.2923077 5.353376 2.9538461 5.353376 6.7938461.073839 4.0984616-3.138186 6.4246154-6.977848 6.4246154z"/></g></g></svg>