<?xml version="1.0" encoding="UTF-8"?> <svg xmlns="http://www.w3.org/2000/svg" viewBox="0 0 81.999 15"><path d="M0 12.65l1.83-2.28a6.445 6.445 0 0 0 4.274 1.796c1.288 0 2.034-.553 2.034-1.382v-.07c0-.829-.474-1.243-2.848-1.866C2.441 8.088.542 7.258.542 4.424.542 1.729 2.645 0 5.562 0a8.11 8.11 0 0 1 5.29 1.867l-1.628 2.42a6.682 6.682 0 0 0-3.73-1.452c-1.222 0-1.832.553-1.832 1.244v.069c0 .968.61 1.244 3.052 1.935 2.917.76 4.544 1.867 4.544 4.355v.07c0 2.903-2.17 4.492-5.222 4.492A8.765 8.765 0 0 1 0 12.65zM18.04.208V3.18h4.341v11.613h3.12V3.18h4.341V.208zm41.306 0v8.986L52.631.208h-2.917v14.584h3.12V5.53l6.918 9.263h2.713V.208h-3.119zm10.784 0V3.18h4.409v11.613h3.12V3.18h4.34V.208H70.13zm-30.317 4.77a2.456 2.456 0 0 0 2.442-2.49 2.442 2.442 0 1 0-4.884.001 2.414 2.414 0 0 0 2.442 2.488zm0 10.022a2.489 2.489 0 1 0-2.442-2.488A2.414 2.414 0 0 0 39.813 15z" fill="#fff"></path></svg> 